ply
format ascii 1.0
comment Created by Open Asset Import Library - http://assimp.sf.net (v5.2.3481089591)
element vertex 188
property float x
property float y
property float z
property float nx
property float ny
property float nz
element face 136
property list uchar int vertex_index
end_header
-12.5 -10 23.3999996 -1 0 0
-12.5 -10 51.4000015 -1 0 0
-12.5 -7 51.4000015 -1 0 0
-12.5 -7 23.5 -1 0 0
-12.5 10 23.5 -1 0 0
-12.5 7 20 -1 -0 0
-12.5 10 -1.22460995e-15 -1 -0 0
-12.5 7 -8.57224024e-16 -1 0 0
-12.5 -7 8.57224024e-16 -1 0 -0
-12.5 -7 20 -1 0 -0
-12.5 -10 1.22460995e-15 -1 0 0
-12.5 -10 51.4000015 0 -1 1.90324002e-16
-12.5 -10 23.3999996 0 -1 1.90324002e-16
-9.5 -10 23.3999996 0 -1 1.90324002e-16
-9.5 -10 33.4000015 3.38354008e-16 -1 2.53765009e-16
-9.5 -10 26.3999996 3.38354008e-16 -1 2.53765009e-16
12.5 -10 23.3999996 0 -1 0
9.5 -10 26.3999996 0 -1 0
9.5 -10 23.3999996 0 -1 0
-9.5 -10 44.4000015 -2.15316e-16 -1 1.61487003e-16
-1.5 -10 44.4000015 0 -1 1.61487003e-16
-1.5 -10 33.4000015 0 -1 1.61487003e-16
1.5 -10 33.4000015 0 -1 1.61487003e-16
12.5 -10 51.4000015 0 -1 2.53765009e-16
1.5 -10 44.4000015 0 -1 1.61487003e-16
9.5 -10 44.4000015 1.48030006e-16 -1 1.90324002e-16
9.5 -10 33.4000015 -5.3829e-17 -1 1.61487003e-16
-9.5 -7 23.5 1 -0 0
-9.5 -10 26.3999996 1 -0 0
-9.5 -10 23.5 1 -0 0
-9.5 -10 23.3999996 1 -0 0
-9.5 -7 26.3999996 1 0 0
-12.5 -10 1.22460995e-15 0 -1 7.59127008e-17
-9.5 -10 1.22460995e-15 0 -1 7.59127008e-17
9.5 -10 20 0 -1 0
-9.5 -10 20 0 -1 0
12.5 -10 1.22460995e-15 0 -1 8.8817797e-17
9.5 -10 1.22460995e-15 0 -1 8.8817797e-17
9.5 -10 23.5 0 -1 0
-9.5 -10 23.5 0 -1 0
-12.5 -10 1.22460995e-15 -0 -1.22461006e-16 -1
-12.5 -7 8.57224024e-16 -0 -1.22461006e-16 -1
-9.5 -10 1.22460995e-15 -0 -1.22461006e-16 -1
-9.5 -7 8.57224024e-16 0 -1.22461006e-16 -1
-12.5 -7 8.57224024e-16 0 1 -1.33227006e-16
-12.5 -7 20 0 1 -1.33227006e-16
-9.5 -7 8.57224024e-16 0 1 -1.33227006e-16
-9.5 -7 20 0 1 -1.33227006e-16
-12.5 -7 20 -0 -2.53765009e-16 -1
-12.5 7 20 -0 -2.53765009e-16 -1
-9.5 -7 20 -0 -2.53765009e-16 -1
-9.5 7 20 0 -2.53765009e-16 -1
-9.5 10 20 0 -0 -1
9.5 10 20 0 -0 -1
9.5 7 20 -1.86984998e-16 0 -1
12.5 7 20 0 -2.53765009e-16 -1
9.5 -7 20 -0 -2.53765009e-16 -1
12.5 -7 20 -0 -2.53765009e-16 -1
9.5 -10 20 0 0 -1
-9.5 -10 20 0 0 -1
-12.5 7 20 0 -1 1.33227006e-16
-12.5 7 -8.57224024e-16 0 -1 1.33227006e-16
-9.5 7 -8.57224024e-16 0 -1 1.33227006e-16
-9.5 7 20 0 -1 1.33227006e-16
-12.5 7 -8.57224024e-16 -0 -1.22461006e-16 -1
-12.5 10 -1.22460995e-15 -0 -1.22461006e-16 -1
-9.5 7 -8.57224024e-16 -0 -1.22461006e-16 -1
-9.5 10 -1.22460995e-15 0 -1.22461006e-16 -1
-12.5 10 -1.22460995e-15 0 1 -1.51178996e-16
-12.5 10 23.5 0 1 -1.51178996e-16
-9.5 10 -1.22460995e-15 0 1 -1.51178996e-16
-9.5 10 20 0 1 -5.07531025e-16
12.5 10 23.5 0 1 -5.07531025e-16
9.5 10 -1.22460995e-15 0 1 -1.51178996e-16
12.5 10 -1.22460995e-15 0 1 -1.51178996e-16
9.5 10 20 -4.88497983e-16 1 -8.8817797e-17
9.5 -7 23.5 0 2.08983e-16 1
12.5 -7 23.5 0 2.08983e-16 1
-12.5 10 23.5 0 2.08983e-16 1
-12.5 -7 23.5 0 2.08983e-16 1
-9.5 -7 23.5 0 2.08983e-16 1
9.5 -10 23.5 3.39430984e-17 2.14973005e-16 1
-9.5 -10 23.5 0 0 1
12.5 10 23.5 0 2.08983e-16 1
-12.5 -7 23.5 0 1 -2.22839995e-16
-12.5 -7 51.4000015 0 1 -2.22839995e-16
-9.5 -7 23.5 0 1 -2.22839995e-16
-9.5 -7 44.4000015 0 1 -2.53765009e-16
12.5 -7 51.4000015 0 1 -2.53765009e-16
9.5 -7 23.5 0 1 -2.22839995e-16
12.5 -7 23.5 0 1 -2.22839995e-16
9.5 -7 26.3999996 -2.07242005e-15 1 0
9.5 -7 33.4000015 4.22942013e-17 1 -2.53765009e-16
-9.5 -7 26.3999996 2.07242005e-15 1 0
-1.5 -7 33.4000015 0 1 -2.53765009e-16
-9.5 -7 33.4000015 0 1 -2.53765009e-16
-1.5 -7 44.4000015 0 1 -2.53765009e-16
1.5 -7 44.4000015 0 1 -2.42230009e-16
9.5 -7 44.4000015 0 1 -2.53765009e-16
1.5 -7 33.4000015 0 1 -2.53765009e-16
-12.5 -7 51.4000015 0 -0 1
-12.5 -10 51.4000015 0 -0 1
12.5 -10 51.4000015 0 -0 1
12.5 -7 51.4000015 0 0 1
12.5 -7 8.57224024e-16 1 0 0
12.5 -10 51.4000015 1 0 0
12.5 -10 23.3999996 1 0 0
12.5 -10 1.22460995e-15 1 0 0
12.5 -7 20 1 0 0
12.5 -7 23.5 1 0 0
12.5 -7 51.4000015 1 0 0
12.5 7 -8.57224024e-16 1 0 0
12.5 10 -1.22460995e-15 1 0 0
12.5 7 20 1 0 0
12.5 10 23.5 1 0 0
9.5 -10 23.5 -1 0 -0
9.5 -10 26.3999996 -1 0 -0
9.5 -7 26.3999996 -1 0 -0
9.5 -10 23.3999996 -1 0 0
9.5 -7 23.5 -1 -0 0
-9.5 -10 26.3999996 -0 -0 -1
-9.5 -7 26.3999996 -0 -0 -1
9.5 -10 26.3999996 -0 -0 -1
9.5 -7 26.3999996 0 0 -1
-9.5 -7 33.4000015 0 -0 1
-9.5 -10 33.4000015 0 -0 1
-1.5 -10 33.4000015 0 -0 1
-1.5 -7 33.4000015 0 0 1
-9.5 -10 44.4000015 1 0 -0
-9.5 -10 33.4000015 1 0 -0
-9.5 -7 33.4000015 1 0 -0
-9.5 -7 44.4000015 1 0 0
-1.5 -10 33.4000015 -1 -0 0
-1.5 -10 44.4000015 -1 -0 0
-1.5 -7 33.4000015 -1 -0 0
-1.5 -7 44.4000015 -1 0 -0
-9.5 -10 44.4000015 -0 -0 -1
-9.5 -7 44.4000015 -0 -0 -1
-1.5 -10 44.4000015 -0 -0 -1
-1.5 -7 44.4000015 0 0 -1
1.5 -7 33.4000015 0 -0 1
1.5 -10 33.4000015 0 -0 1
9.5 -10 33.4000015 0 -0 1
9.5 -7 33.4000015 0 0 1
1.5 -10 44.4000015 1 0 -0
1.5 -10 33.4000015 1 0 -0
1.5 -7 33.4000015 1 0 -0
1.5 -7 44.4000015 1 0 0
9.5 -10 33.4000015 -1 -0 0
9.5 -10 44.4000015 -1 -0 0
9.5 -7 33.4000015 -1 -0 0
9.5 -7 44.4000015 -1 0 -0
1.5 -10 44.4000015 -0 -0 -1
1.5 -7 44.4000015 -0 -0 -1
9.5 -10 44.4000015 -0 -0 -1
9.5 -7 44.4000015 0 0 -1
9.5 -10 1.22460995e-15 -0 -1.22461006e-16 -1
9.5 -7 8.57224024e-16 -0 -1.22461006e-16 -1
12.5 -10 1.22460995e-15 -0 -1.22461006e-16 -1
12.5 -7 8.57224024e-16 0 -1.22461006e-16 -1
9.5 -10 1.22460995e-15 -1 -0 0
9.5 -10 20 -1 -0 0
9.5 -7 8.57224024e-16 -1 -0 0
9.5 -7 20 -1 0 -0
-9.5 -10 20 1 0 -0
-9.5 -10 1.22460995e-15 1 0 -0
-9.5 -7 8.57224024e-16 1 0 -0
-9.5 -7 20 1 0 0
9.5 -7 8.57224024e-16 0 1 -1.33227006e-16
9.5 -7 20 0 1 -1.33227006e-16
12.5 -7 8.57224024e-16 0 1 -1.33227006e-16
12.5 -7 20 0 1 -1.33227006e-16
9.5 7 20 0 -1 1.33227006e-16
9.5 7 -8.57224024e-16 0 -1 1.33227006e-16
12.5 7 -8.57224024e-16 0 -1 1.33227006e-16
12.5 7 20 0 -1 1.33227006e-16
9.5 7 -8.57224024e-16 -1 -0 0
9.5 7 20 -1 -0 0
9.5 10 -1.22460995e-15 -1 -0 0
9.5 10 20 -1 0 -0
-9.5 7 20 1 0 -0
-9.5 7 -8.57224024e-16 1 0 -0
-9.5 10 -1.22460995e-15 1 0 -0
-9.5 10 20 1 0 0
9.5 7 -8.57224024e-16 -0 -1.22461006e-16 -1
9.5 10 -1.22460995e-15 -0 -1.22461006e-16 -1
12.5 7 -8.57224024e-16 -0 -1.22461006e-16 -1
12.5 10 -1.22460995e-15 0 -1.22461006e-16 -1
3 0 1 2
3 0 2 3
3 0 3 4
3 5 4 6
3 5 6 7
3 0 4 5
3 8 0 9
3 0 5 9
3 0 8 10
3 11 12 13
3 14 11 15
3 15 11 13
3 16 17 18
3 17 14 15
3 19 11 14
3 20 21 22
3 23 11 20
3 17 21 14
3 22 24 20
3 17 22 21
3 23 20 24
3 23 25 16
3 23 24 25
3 25 26 16
3 26 17 16
3 19 20 11
3 26 22 17
3 27 28 29
3 29 28 30
3 31 28 27
3 12 32 33
3 34 12 35
3 35 12 33
3 18 13 34
3 36 34 37
3 16 34 36
3 13 12 34
3 16 18 34
3 38 13 18
3 39 13 38
3 40 41 42
3 42 41 43
3 44 45 46
3 46 45 47
3 48 49 50
3 50 49 51
3 51 52 53
3 51 53 50
3 50 53 54
3 50 54 55
3 56 55 57
3 50 55 56
3 56 58 50
3 50 58 59
3 60 61 62
3 63 60 62
3 64 65 66
3 66 65 67
3 68 69 70
3 71 69 72
3 73 72 74
3 75 72 73
3 70 69 71
3 71 72 75
3 76 77 78
3 78 79 80
3 81 78 80
3 82 81 80
3 81 76 78
3 77 83 78
3 84 85 86
3 87 85 88
3 89 88 90
3 91 88 89
3 92 88 91
3 86 85 93
3 94 93 95
3 93 85 95
3 96 87 88
3 85 87 95
3 96 97 94
3 97 96 88
3 97 88 98
3 94 99 91
3 98 88 92
3 99 92 91
3 99 94 97
3 93 94 91
3 100 101 102
3 103 100 102
3 104 105 106
3 107 104 106
3 104 108 105
3 109 110 105
3 111 112 113
3 112 114 113
3 108 109 105
3 108 113 109
3 114 109 113
3 115 116 117
3 118 116 115
3 115 117 119
3 120 121 122
3 122 121 123
3 124 125 126
3 127 124 126
3 128 129 130
3 131 128 130
3 132 133 134
3 134 133 135
3 136 137 138
3 138 137 139
3 140 141 142
3 143 140 142
3 144 145 146
3 147 144 146
3 148 149 150
3 150 149 151
3 152 153 154
3 154 153 155
3 156 157 158
3 158 157 159
3 160 161 162
3 162 161 163
3 164 165 166
3 167 164 166
3 168 169 170
3 170 169 171
3 172 173 174
3 175 172 174
3 176 177 178
3 178 177 179
3 180 181 182
3 183 180 182
3 184 185 186
3 186 185 187
